<svg width="82" height="87" viewBox="0 0 82 87" fill="none" xmlns="http://www.w3.org/2000/svg">
<path d="M74.5455 62.8048V27.4771H22.3636V62.8048H74.5455ZM74.5455 7.8506C76.5225 7.8506 78.4186 8.67772 79.8166 10.15C81.2146 11.6223 82 13.6191 82 15.7012V62.8048C82 64.8869 81.2146 66.8838 79.8166 68.356C78.4186 69.8283 76.5225 70.6554 74.5455 70.6554H22.3636C20.3866 70.6554 18.4905 69.8283 17.0925 68.356C15.6945 66.8838 14.9091 64.8869 14.9091 62.8048V15.7012C14.9091 13.6191 15.6945 11.6223 17.0925 10.15C18.4905 8.67772 20.3866 7.8506 22.3636 7.8506H26.0909V0H33.5455V7.8506H63.3636V0H70.8182V7.8506H74.5455ZM7.45455 78.506H59.6364V86.3566H7.45455C5.47748 86.3566 3.58138 85.5295 2.18339 84.0572C0.785387 82.585 0 80.5881 0 78.506V31.4024H7.45455V78.506Z" fill="#F8670E"/>
</svg>
