<svg width="1517" height="301" viewBox="0 0 1517 301" fill="none" xmlns="http://www.w3.org/2000/svg">
<path fill-rule="evenodd" clip-rule="evenodd" d="M0 0L63.2083 15.3133C126.417 30.6265 252.833 61.253 379.25 73.1633C505.667 85.6408 632.083 79.4021 758.5 61.253C884.917 42.5368 1011.33 11.9103 1137.75 9.07452C1264.17 6.23873 1390.58 30.6265 1453.79 42.5368L1517 55.0143V146.894H1453.79C1390.58 146.894 1264.17 146.894 1137.75 146.894C1011.33 146.894 884.917 146.894 758.5 146.894C632.083 146.894 505.667 146.894 379.25 146.894C252.833 146.894 126.417 146.894 63.2083 146.894H0V0Z" fill="#F8670E"/>
<path fill-rule="evenodd" clip-rule="evenodd" d="M0 50.2041L63.2083 61.8344C126.417 73.4647 252.833 96.7254 379.25 105.771C505.667 115.248 632.083 110.509 758.5 96.7254C884.917 82.5105 1011.33 59.2499 1137.75 57.0961C1264.17 54.9424 1390.58 73.4647 1453.79 82.5105L1517 91.9871V161.769H1453.79C1390.58 161.769 1264.17 161.769 1137.75 161.769C1011.33 161.769 884.917 161.769 758.5 161.769C632.083 161.769 505.667 161.769 379.25 161.769C252.833 161.769 126.417 161.769 63.2083 161.769H0V50.2041Z" fill="#A512BD"/>
<path fill-rule="evenodd" clip-rule="evenodd" d="M0 75.3782L63.2083 98.8986C126.417 122.419 276.996 111.695 403.413 129.989C529.829 149.154 572.202 157.865 698.618 129.989C825.035 101.242 1011.33 93.6718 1137.75 89.3162C1264.17 84.9606 1390.58 122.419 1453.79 140.713L1517 159.877V301H1453.79C1390.58 301 1264.17 301 1137.75 301C1011.33 301 884.917 301 758.5 301C632.083 301 505.667 301 379.25 301C252.833 301 126.417 301 63.2083 301H0V75.3782Z" fill="#A512BD"/>
</svg>
