<svg width="343" height="343" viewBox="0 0 343 343" fill="none" xmlns="http://www.w3.org/2000/svg">
<circle cx="171.5" cy="171.5" r="171.5" fill="white"/>
<path d="M38.9993 154.559L38.4993 207.059" stroke="#F8670E" stroke-width="12" stroke-linecap="round"/>
<path d="M244.499 154.559L243.999 207.059" stroke="#F8670E" stroke-width="12" stroke-linecap="round"/>
<path d="M57.9993 160.559V207.559" stroke="#F8670E" stroke-width="12" stroke-linecap="round"/>
<path d="M263.499 160.559V207.559" stroke="#F8670E" stroke-width="12" stroke-linecap="round"/>
<path d="M78.9993 160.559V207.559" stroke="#F8670E" stroke-width="12" stroke-linecap="round"/>
<path d="M284.499 160.559V207.559" stroke="#F8670E" stroke-width="12" stroke-linecap="round"/>
<path d="M83.9993 170.559C83.6251 170.026 83.4993 163.059 89.4993 163.059C95.4993 163.059 95.4993 168.059 95.4993 170.559" stroke="#F8670E" stroke-width="2"/>
<path d="M289.499 170.559C289.125 170.026 288.999 163.059 294.999 163.059C300.999 163.059 300.999 168.059 300.999 170.559" stroke="#F8670E" stroke-width="2"/>
<path d="M63.1478 170.059C62.7736 169.526 62.6478 162.559 68.6477 162.559C74.6477 162.559 74.6478 167.559 74.6478 170.059" stroke="#F8670E" stroke-width="2"/>
<path d="M268.648 170.059C268.274 169.526 268.148 162.559 274.148 162.559C280.148 162.559 280.148 167.559 280.148 170.059" stroke="#F8670E" stroke-width="2"/>
<path d="M52.9992 173.559C52.9992 172.76 54.5891 168.059 52.9992 162.559C52.4992 157.559 57.0257 149.559 66.5129 149.559C83.9068 149.559 82.991 168.222 82.9909 177.559" stroke="#F8670E" stroke-width="2"/>
<path d="M258.499 173.559C258.499 172.76 260.089 168.059 258.499 162.559C257.999 157.559 262.526 149.559 272.013 149.559C289.407 149.559 288.491 168.222 288.491 177.559" stroke="#F8670E" stroke-width="2"/>
<path d="M104.999 173.559C104.999 172.76 103.39 167.559 104.999 162.059C105.505 157.059 101.286 149.559 91.6847 149.559C74.0807 149.559 75.0076 168.222 75.0077 177.559" stroke="#F8670E" stroke-width="2"/>
<path d="M310.499 173.559C310.499 172.76 308.89 167.559 310.499 162.059C311.005 157.059 306.786 149.559 297.184 149.559C279.58 149.559 280.507 168.222 280.507 177.559" stroke="#F8670E" stroke-width="2"/>
<path d="M99.9993 160.559V207.559" stroke="#F8670E" stroke-width="12" stroke-linecap="round"/>
<path d="M305.499 160.559V207.559" stroke="#F8670E" stroke-width="12" stroke-linecap="round"/>
<path d="M75.7801 155.773C76.1446 155.432 76.533 155.12 76.9118 154.796C77.0323 154.693 77.0053 154.633 76.8707 154.549C76.5178 154.329 76.1152 154.149 75.7344 153.984C75.3374 153.811 74.9133 153.784 74.4886 153.728C73.1362 153.551 71.8477 153.132 70.6141 152.564C70.3031 152.421 69.9742 152.318 69.6604 152.181C69.364 152.052 69.1043 151.908 68.7842 151.839C68.4944 151.776 68.2093 151.714 67.9262 151.624C67.6649 151.542 67.4368 151.43 67.1595 151.41C66.5498 151.366 65.8991 151.471 65.3159 151.647C64.8591 151.785 64.3549 151.802 63.9194 151.985C63.6507 152.097 63.408 152.178 63.1163 152.208C62.4943 152.274 62.0094 152.589 61.4278 152.765C60.9796 152.901 60.4415 152.899 60.0404 153.167C59.7828 153.338 59.572 153.604 59.3194 153.792C58.7486 154.216 58.3308 154.776 57.7815 155.22C57.7278 155.264 57.2453 155.649 57.3297 155.526C57.3711 155.466 57.4474 155.49 57.5123 155.476C57.9884 155.375 58.4489 155.231 58.9315 155.147C59.8478 154.988 60.7819 154.8 61.7107 154.732C62.405 154.681 63.1057 154.776 63.8008 154.789C64.1642 154.796 64.524 154.864 64.8869 154.864C65.2564 154.864 65.571 154.666 65.9023 154.527C66.4743 154.287 67.2383 154.061 67.8601 154.013C68.5824 153.958 69.3047 154.064 70.0254 154.086C70.3757 154.097 70.7347 154.129 71.0842 154.102C71.486 154.071 71.8754 154.006 72.2798 154.006C72.5865 154.006 73.0657 154.009 73.3135 154.232C73.4699 154.373 73.7079 154.308 73.8976 154.34C73.9488 154.348 74.5177 154.57 74.3973 154.417C74.2505 154.23 74.0349 154.085 73.8816 153.888C73.5591 153.474 73.258 153.041 72.9005 152.656C72.6221 152.355 72.1739 152.21 71.8143 152.035C71.5146 151.889 71.2267 151.783 70.9108 151.684C70.6246 151.594 70.2806 151.762 70.0118 151.83C69.5597 151.943 69.1011 152.003 68.6564 152.145C67.8854 152.39 67.2636 152.875 66.5663 153.263C65.675 153.758 64.8684 154.385 63.8875 154.682C63.5454 154.785 63.2485 154.869 62.8881 154.869C62.8547 154.869 62.6262 154.881 62.596 154.851C62.5781 154.833 62.7185 154.828 62.7192 154.828C63.0179 154.828 63.3163 154.827 63.6137 154.86C64.2186 154.928 64.8585 155.046 65.398 155.341C65.5312 155.414 65.8183 155.547 65.8772 155.709C65.9086 155.795 65.7522 155.774 65.7129 155.777C65.1685 155.825 64.6748 156.095 64.1704 156.284C63.6776 156.468 63.1815 156.645 62.6782 156.797C62.5809 156.826 62.5952 156.911 62.5504 156.991C62.4975 157.085 62.3119 157.414 62.5321 157.454C62.6958 157.484 62.8923 157.404 63.0432 157.365C63.7238 157.189 64.4366 157.07 65.1425 157.096C65.5134 157.11 65.9165 157.188 66.2423 157.372C66.3088 157.41 66.4933 157.479 66.4933 157.58C66.4933 157.668 66.3335 157.734 66.2788 157.776C65.8089 158.133 65.3554 158.512 64.8778 158.86C64.3049 159.276 63.7219 159.691 63.1254 160.074C63.027 160.137 62.897 160.198 62.8447 160.311C62.8124 160.381 62.8054 160.423 62.8858 160.373C63.0264 160.285 63.2611 160.333 63.4152 160.329C64.051 160.315 64.8593 160.167 65.341 160.697C65.6268 161.011 64.9537 161.506 64.7728 161.687C64.4227 162.037 64.1195 162.447 63.746 162.771C63.7245 162.789 63.5659 162.971 63.584 162.853C63.6135 162.661 63.8174 162.474 63.94 162.339C64.2418 162.009 64.602 161.747 64.9713 161.497C65.5741 161.09 66.3107 160.717 67.0546 160.665C67.5983 160.626 67.9519 160.924 68.4465 161.025C69.0524 161.149 69.6925 160.965 70.3129 161.03C70.635 161.063 70.9353 161.055 71.2576 161.039C71.5769 161.023 71.834 161.095 72.1384 161.176C72.4037 161.246 72.7331 161.332 73.01 161.258C73.2243 161.201 73.3952 161.037 73.5667 160.906C73.8981 160.655 74.1783 160.371 74.4247 160.035C74.5378 159.88 74.568 159.792 74.5981 159.615C74.6806 159.131 74.907 158.67 74.9175 158.173C74.9243 157.855 74.7347 157.561 74.589 157.292C74.3961 156.936 74.1091 156.579 73.7721 156.348C72.8172 155.692 71.9002 156.194 70.8743 156.425C70.017 156.618 69.1637 156.583 68.3324 156.891C67.7185 157.117 67.1178 157.245 66.4705 157.333C66.102 157.383 65.7087 157.371 65.3455 157.443C65.0301 157.505 64.7325 157.654 64.4214 157.737C64.3506 157.756 64.1337 157.785 64.2069 157.785C65.3399 157.785 66.4554 157.755 67.5908 157.664C69.3685 157.522 71.3009 157.447 73.0533 157.867C73.3895 157.948 73.6851 158.066 73.9866 158.235C74.1552 158.329 74.4281 158.445 74.5342 158.618C74.5962 158.719 74.301 158.662 74.1828 158.668C73.5199 158.7 72.8935 158.624 72.2388 158.552C71.1886 158.436 70.0911 158.524 69.0352 158.524C68.5417 158.524 68.1138 158.573 67.641 158.714C67.2796 158.821 66.9365 159.021 66.5617 159.074C66.3647 159.102 66.1669 159.099 65.9685 159.099C65.9383 159.099 65.7484 159.099 65.8818 159.099" stroke="#F8670E" stroke-width="3" stroke-linecap="round"/>
<path d="M281.28 155.773C281.645 155.432 282.033 155.12 282.412 154.796C282.533 154.693 282.506 154.633 282.371 154.549C282.018 154.329 281.615 154.149 281.235 153.984C280.838 153.811 280.414 153.784 279.989 153.728C278.636 153.551 277.348 153.132 276.114 152.564C275.803 152.421 275.474 152.318 275.161 152.181C274.864 152.052 274.605 151.908 274.284 151.839C273.995 151.776 273.71 151.714 273.426 151.624C273.165 151.542 272.937 151.43 272.66 151.41C272.05 151.366 271.399 151.471 270.816 151.647C270.359 151.785 269.855 151.802 269.42 151.985C269.151 152.097 268.908 152.178 268.617 152.208C267.995 152.274 267.51 152.589 266.928 152.765C266.48 152.901 265.942 152.899 265.541 153.167C265.283 153.338 265.072 153.604 264.82 153.792C264.249 154.216 263.831 154.776 263.282 155.22C263.228 155.264 262.746 155.649 262.83 155.526C262.871 155.466 262.948 155.49 263.012 155.476C263.489 155.375 263.949 155.231 264.432 155.147C265.348 154.988 266.282 154.8 267.211 154.732C267.905 154.681 268.606 154.776 269.301 154.789C269.664 154.796 270.024 154.864 270.387 154.864C270.757 154.864 271.071 154.666 271.403 154.527C271.975 154.287 272.738 154.061 273.36 154.013C274.083 153.958 274.805 154.064 275.526 154.086C275.876 154.097 276.235 154.129 276.584 154.102C276.986 154.071 277.376 154.006 277.78 154.006C278.087 154.006 278.566 154.009 278.814 154.232C278.97 154.373 279.208 154.308 279.398 154.34C279.449 154.348 280.018 154.57 279.898 154.417C279.751 154.23 279.535 154.085 279.382 153.888C279.059 153.474 278.758 153.041 278.401 152.656C278.122 152.355 277.674 152.21 277.315 152.035C277.015 151.889 276.727 151.783 276.411 151.684C276.125 151.594 275.781 151.762 275.512 151.83C275.06 151.943 274.601 152.003 274.157 152.145C273.386 152.39 272.764 152.875 272.067 153.263C271.175 153.758 270.369 154.385 269.388 154.682C269.046 154.785 268.749 154.869 268.388 154.869C268.355 154.869 268.126 154.881 268.096 154.851C268.078 154.833 268.219 154.828 268.219 154.828C268.518 154.828 268.817 154.827 269.114 154.86C269.719 154.928 270.359 155.046 270.898 155.341C271.031 155.414 271.319 155.547 271.377 155.709C271.409 155.795 271.252 155.774 271.213 155.777C270.669 155.825 270.175 156.095 269.671 156.284C269.178 156.468 268.682 156.645 268.178 156.797C268.081 156.826 268.095 156.911 268.051 156.991C267.998 157.085 267.812 157.414 268.032 157.454C268.196 157.484 268.392 157.404 268.543 157.365C269.224 157.189 269.937 157.07 270.643 157.096C271.014 157.11 271.417 157.188 271.743 157.372C271.809 157.41 271.994 157.479 271.994 157.58C271.994 157.668 271.834 157.734 271.779 157.776C271.309 158.133 270.856 158.512 270.378 158.86C269.805 159.276 269.222 159.691 268.626 160.074C268.527 160.137 268.397 160.198 268.345 160.311C268.313 160.381 268.306 160.423 268.386 160.373C268.527 160.285 268.761 160.333 268.915 160.329C269.551 160.315 270.36 160.167 270.841 160.697C271.127 161.011 270.454 161.506 270.273 161.687C269.923 162.037 269.62 162.447 269.246 162.771C269.225 162.789 269.066 162.971 269.084 162.853C269.114 162.661 269.318 162.474 269.44 162.339C269.742 162.009 270.102 161.747 270.472 161.497C271.074 161.09 271.811 160.717 272.555 160.665C273.099 160.626 273.452 160.924 273.947 161.025C274.553 161.149 275.193 160.965 275.813 161.03C276.135 161.063 276.436 161.055 276.758 161.039C277.077 161.023 277.334 161.095 277.639 161.176C277.904 161.246 278.233 161.332 278.51 161.258C278.725 161.201 278.895 161.037 279.067 160.906C279.398 160.655 279.679 160.371 279.925 160.035C280.038 159.88 280.068 159.792 280.098 159.615C280.181 159.131 280.407 158.67 280.418 158.173C280.424 157.855 280.235 157.561 280.089 157.292C279.896 156.936 279.609 156.579 279.272 156.348C278.317 155.692 277.4 156.194 276.375 156.425C275.517 156.618 274.664 156.583 273.833 156.891C273.219 157.117 272.618 157.245 271.971 157.333C271.602 157.383 271.209 157.371 270.846 157.443C270.53 157.505 270.233 157.654 269.922 157.737C269.851 157.756 269.634 157.785 269.707 157.785C270.84 157.785 271.956 157.755 273.091 157.664C274.869 157.522 276.801 157.447 278.554 157.867C278.89 157.948 279.185 158.066 279.487 158.235C279.655 158.329 279.928 158.445 280.034 158.618C280.096 158.719 279.801 158.662 279.683 158.668C279.02 158.7 278.394 158.624 277.739 158.552C276.689 158.436 275.591 158.524 274.535 158.524C274.042 158.524 273.614 158.573 273.141 158.714C272.78 158.821 272.437 159.021 272.062 159.074C271.865 159.102 271.667 159.099 271.469 159.099C271.439 159.099 271.249 159.099 271.382 159.099" stroke="#F8670E" stroke-width="3" stroke-linecap="round"/>
<path d="M66.9087 155.074C67.0915 155.735 67.2873 156.395 67.4837 157.053C67.542 157.248 67.6201 157.593 67.7712 157.744" stroke="#F8670E" stroke-width="3" stroke-linecap="round"/>
<path d="M272.409 155.074C272.592 155.735 272.787 156.395 272.984 157.053C273.042 157.248 273.12 157.593 273.271 157.744" stroke="#F8670E" stroke-width="3" stroke-linecap="round"/>
<path d="M81.1606 155.814C82.3754 155.229 83.7217 154.828 85.0511 154.616C85.8581 154.487 86.7801 154.422 87.5952 154.559C87.7471 154.584 87.9213 154.623 88.0698 154.666C88.2356 154.713 87.7265 154.705 87.5541 154.705C86.1496 154.705 84.7509 154.83 83.3557 154.965C82.9944 155 82.6285 154.967 82.2741 155.056C82.0894 155.102 81.8582 155.195 81.6626 155.152C81.529 155.122 82.1944 154.535 82.2422 154.495C82.5169 154.262 82.742 153.982 83.0134 153.749C83.3165 153.488 83.7244 153.299 84.079 153.119C84.3598 152.976 84.7196 152.942 85.026 152.897C85.6011 152.814 86.1507 152.645 86.7236 152.548C87.2755 152.455 87.8483 152.469 88.3893 152.32C88.8359 152.197 89.2951 152.184 89.7446 152.076C90.2929 151.944 90.788 151.827 91.3578 151.898C92.2558 152.01 93.1728 152.177 94.0435 152.418C94.6459 152.585 95.2838 152.711 95.8986 152.831C96.2926 152.908 96.7033 152.91 97.101 152.98C97.7264 153.089 98.3771 153.173 98.9858 153.352C99.8926 153.617 100.141 154.442 100.583 155.202C100.731 155.456 100.824 155.485 101.09 155.485C101.172 155.485 101.257 155.491 101.338 155.483C101.462 155.47 101.141 155.327 101.03 155.271C100.761 155.133 100.599 154.972 100.391 154.764C100.056 154.429 99.5015 154.243 99.0634 154.098C98.1386 153.791 97.241 153.399 96.3093 153.112C95.746 152.939 95.1574 153.088 94.5911 152.916C94.3956 152.856 94.198 152.798 93.9978 152.756C93.7708 152.709 93.6252 152.601 93.4183 152.51C92.7887 152.231 92.1526 152.014 91.5062 151.779C91.4748 151.768 90.4067 151.405 90.7349 151.277C90.8744 151.223 91.0543 151.231 91.2004 151.204C91.4886 151.153 91.7532 151.09 92.0447 151.159C92.4467 151.254 92.8014 151.443 93.1855 151.583C93.6949 151.769 94.2172 151.662 94.744 151.777C95.2578 151.89 95.7456 151.972 96.2705 152.021C96.9285 152.083 97.6175 152.163 98.1963 152.51C98.2793 152.559 98.5808 152.722 98.4222 152.815C98.1979 152.947 97.7398 152.882 97.4981 152.888C96.4726 152.915 95.4478 152.924 94.4223 152.961C93.5073 152.995 92.5998 153.035 91.7024 153.233C90.4966 153.498 89.344 153.991 88.2273 154.506C87.0887 155.031 85.9602 155.574 84.816 156.087C84.0698 156.422 83.2985 156.748 82.5982 157.174C82.5631 157.195 81.9457 157.619 81.9912 157.466C82.0456 157.282 82.2966 157.139 82.4339 157.053C83.4915 156.386 84.7086 155.79 85.9204 155.474C87.9673 154.94 90.1078 154.541 92.2272 154.782C92.6586 154.831 93.0722 154.97 93.5073 154.988C93.9649 155.006 94.3955 155.05 94.8467 155.134C95.534 155.261 96.1631 155.592 96.8546 155.69C97.0572 155.719 97.3727 155.752 97.4867 155.957C97.6862 156.316 95.5796 156.399 95.5129 156.407C94.1604 156.571 92.8147 156.776 91.4674 156.977C90.5956 157.107 89.7037 157.182 88.8411 157.365C87.4825 157.654 86.1475 158.043 84.7955 158.355C83.9129 158.56 83.0296 158.78 82.1646 159.049C82.0841 159.074 81.7918 159.211 81.7037 159.156C81.6212 159.105 81.7679 158.969 81.8018 158.953C82.3384 158.711 82.9819 158.623 83.5474 158.474C84.8306 158.136 86.1252 158.07 87.4492 158.068C89.8245 158.064 92.1274 158.424 94.4565 158.851C94.9594 158.943 95.4311 159.039 95.8963 159.259C96.0281 159.322 96.1565 159.392 96.2842 159.462C96.3131 159.478 96.4029 159.502 96.3709 159.51C96.274 159.534 96.1272 159.51 96.0309 159.515C94.9378 159.564 93.8419 159.579 92.7497 159.642C91.6565 159.706 90.5691 159.846 89.4754 159.902C88.6753 159.944 87.889 159.95 87.0978 160.094C85.806 160.33 84.5036 160.702 83.3283 161.294C82.7436 161.589 82.113 161.864 81.4847 162.054C81.3439 162.097 81.1077 162.239 81.3158 161.997C81.4565 161.834 81.6583 161.807 81.8611 161.76C82.8523 161.53 83.8528 161.359 84.8662 161.262C85.7394 161.179 86.6477 161.099 87.5222 161.208C88.1662 161.288 88.7792 161.399 89.4298 161.399C89.8219 161.399 90.2128 161.405 90.6026 161.354C91.0308 161.297 91.4417 161.205 91.8758 161.196C92.7026 161.18 93.5211 161.224 94.3173 161.45C94.5052 161.503 94.7143 161.518 94.7143 161.732C94.7143 162.032 94.5714 162.457 94.4451 162.727C94.393 162.839 94.2645 162.742 94.1804 162.714C93.4574 162.473 92.7856 162.09 92.0675 161.837C91.3185 161.574 90.4526 161.5 89.6899 161.696C88.6404 161.966 87.5824 162.2 86.5319 162.465C85.9064 162.623 85.3103 162.627 84.6791 162.704C84.4598 162.732 83.5017 163.351 83.5017 162.878" stroke="#F8670E" stroke-width="3" stroke-linecap="round"/>
<path d="M286.661 155.814C287.875 155.229 289.222 154.828 290.551 154.616C291.358 154.487 292.28 154.422 293.095 154.559C293.247 154.584 293.421 154.623 293.57 154.666C293.736 154.713 293.227 154.705 293.054 154.705C291.65 154.705 290.251 154.83 288.856 154.965C288.494 155 288.128 154.967 287.774 155.056C287.589 155.102 287.358 155.195 287.163 155.152C287.029 155.122 287.694 154.535 287.742 154.495C288.017 154.262 288.242 153.982 288.513 153.749C288.817 153.488 289.224 153.299 289.579 153.119C289.86 152.976 290.22 152.942 290.526 152.897C291.101 152.814 291.651 152.645 292.224 152.548C292.775 152.455 293.348 152.469 293.889 152.32C294.336 152.197 294.795 152.184 295.245 152.076C295.793 151.944 296.288 151.827 296.858 151.898C297.756 152.01 298.673 152.177 299.543 152.418C300.146 152.585 300.784 152.711 301.399 152.831C301.793 152.908 302.203 152.91 302.601 152.98C303.226 153.089 303.877 153.173 304.486 153.352C305.393 153.617 305.641 154.442 306.083 155.202C306.231 155.456 306.324 155.485 306.59 155.485C306.672 155.485 306.757 155.491 306.838 155.483C306.962 155.47 306.641 155.327 306.53 155.271C306.261 155.133 306.099 154.972 305.891 154.764C305.556 154.429 305.002 154.243 304.563 154.098C303.639 153.791 302.741 153.399 301.809 153.112C301.246 152.939 300.657 153.088 300.091 152.916C299.896 152.856 299.698 152.798 299.498 152.756C299.271 152.709 299.125 152.601 298.918 152.51C298.289 152.231 297.653 152.014 297.006 151.779C296.975 151.768 295.907 151.405 296.235 151.277C296.374 151.223 296.554 151.231 296.7 151.204C296.989 151.153 297.253 151.09 297.545 151.159C297.947 151.254 298.301 151.443 298.686 151.583C299.195 151.769 299.717 151.662 300.244 151.777C300.758 151.89 301.246 151.972 301.77 152.021C302.428 152.083 303.118 152.163 303.696 152.51C303.779 152.559 304.081 152.722 303.922 152.815C303.698 152.947 303.24 152.882 302.998 152.888C301.973 152.915 300.948 152.924 299.922 152.961C299.007 152.995 298.1 153.035 297.202 153.233C295.997 153.498 294.844 153.991 293.727 154.506C292.589 155.031 291.46 155.574 290.316 156.087C289.57 156.422 288.798 156.748 288.098 157.174C288.063 157.195 287.446 157.619 287.491 157.466C287.546 157.282 287.797 157.139 287.934 157.053C288.991 156.386 290.209 155.79 291.42 155.474C293.467 154.94 295.608 154.541 297.727 154.782C298.159 154.831 298.572 154.97 299.007 154.988C299.465 155.006 299.895 155.05 300.347 155.134C301.034 155.261 301.663 155.592 302.355 155.69C302.557 155.719 302.873 155.752 302.987 155.957C303.186 156.316 301.08 156.399 301.013 156.407C299.66 156.571 298.315 156.776 296.967 156.977C296.096 157.107 295.204 157.182 294.341 157.365C292.983 157.654 291.647 158.043 290.295 158.355C289.413 158.56 288.53 158.78 287.665 159.049C287.584 159.074 287.292 159.211 287.204 159.156C287.121 159.105 287.268 158.969 287.302 158.953C287.838 158.711 288.482 158.623 289.047 158.474C290.331 158.136 291.625 158.07 292.949 158.068C295.324 158.064 297.627 158.424 299.956 158.851C300.459 158.943 300.931 159.039 301.396 159.259C301.528 159.322 301.656 159.392 301.784 159.462C301.813 159.478 301.903 159.502 301.871 159.51C301.774 159.534 301.627 159.51 301.531 159.515C300.438 159.564 299.342 159.579 298.25 159.642C297.156 159.706 296.069 159.846 294.975 159.902C294.175 159.944 293.389 159.95 292.598 160.094C291.306 160.33 290.004 160.702 288.828 161.294C288.244 161.589 287.613 161.864 286.985 162.054C286.844 162.097 286.608 162.239 286.816 161.997C286.957 161.834 287.158 161.807 287.361 161.76C288.352 161.53 289.353 161.359 290.366 161.262C291.239 161.179 292.148 161.099 293.022 161.208C293.666 161.288 294.279 161.399 294.93 161.399C295.322 161.399 295.713 161.405 296.103 161.354C296.531 161.297 296.942 161.205 297.376 161.196C298.203 161.18 299.021 161.224 299.817 161.45C300.005 161.503 300.214 161.518 300.214 161.732C300.214 162.032 300.071 162.457 299.945 162.727C299.893 162.839 299.765 162.742 299.68 162.714C298.957 162.473 298.286 162.09 297.567 161.837C296.818 161.574 295.953 161.5 295.19 161.696C294.14 161.966 293.082 162.2 292.032 162.465C291.406 162.623 290.81 162.627 290.179 162.704C289.96 162.732 289.002 163.351 289.002 162.878" stroke="#F8670E" stroke-width="3" stroke-linecap="round"/>
<path d="M143.374 212.684C137.208 212.684 131.874 211.392 127.374 208.809C122.958 206.225 119.499 202.559 116.999 197.809C114.499 193.059 113.249 187.475 113.249 181.059C113.249 176.142 113.958 171.767 115.374 167.934C116.791 164.1 118.791 160.809 121.374 158.059C124.041 155.225 127.208 153.1 130.874 151.684C134.624 150.184 138.791 149.434 143.374 149.434C149.458 149.434 154.708 150.725 159.124 153.309C163.624 155.892 167.124 159.559 169.624 164.309C172.124 168.975 173.374 174.559 173.374 181.059C173.374 185.892 172.666 190.267 171.249 194.184C169.833 198.1 167.791 201.434 165.124 204.184C162.541 206.934 159.374 209.059 155.624 210.559C151.958 211.975 147.874 212.684 143.374 212.684ZM143.374 202.934C146.791 202.934 149.791 202.1 152.374 200.434C154.958 198.767 156.958 196.309 158.374 193.059C159.874 189.809 160.624 185.809 160.624 181.059C160.624 173.892 159.041 168.475 155.874 164.809C152.708 161.142 148.541 159.309 143.374 159.309C139.874 159.309 136.833 160.142 134.249 161.809C131.666 163.392 129.624 165.809 128.124 169.059C126.708 172.309 125.999 176.309 125.999 181.059C125.999 188.142 127.583 193.559 130.749 197.309C133.916 201.059 138.124 202.934 143.374 202.934Z" fill="#F8670E"/>
<path d="M184.999 157.559L204.499 207.559L224.999 157.559" stroke="#F8670E" stroke-width="12" stroke-linecap="round" stroke-linejoin="round"/>
<path d="M40.4739 144.736C39.6808 144.756 38.9095 144.6 38.1602 144.269C37.8372 144.131 37.5148 144.027 37.1928 143.959C36.8709 143.891 36.5339 143.862 36.1819 143.871L33.1876 143.946L33.0866 137.137L35.8737 137.067C36.1633 137.06 36.4342 136.992 36.6864 136.864C36.9385 136.736 37.1676 136.553 37.3736 136.315L41.4608 131.491C41.5703 131.361 41.6802 131.259 41.7906 131.186C41.9009 131.112 42.0363 131.073 42.1967 131.069C42.3437 131.065 42.4823 131.092 42.6124 131.15C42.7426 131.207 42.8575 131.293 42.9573 131.407C43.057 131.521 43.1347 131.648 43.1903 131.789C43.2458 131.929 43.2771 132.086 43.2841 132.258C43.2902 132.668 43.2559 133.059 43.1812 133.431C43.1065 133.803 42.9939 134.176 42.8434 134.55C42.7575 134.77 42.6851 134.992 42.626 135.217C42.5669 135.441 42.5281 135.678 42.5095 135.927L45.477 135.852C45.6508 135.847 45.8162 135.881 45.9733 135.953C46.1304 136.025 46.2679 136.126 46.3857 136.254C46.5035 136.383 46.5993 136.535 46.6733 136.711C46.7472 136.886 46.7834 137.076 46.782 137.278C46.7844 137.44 46.7644 137.595 46.722 137.744L45.0976 143.623C45.0129 143.924 44.8605 144.169 44.6405 144.357C44.4204 144.545 44.1722 144.642 43.8959 144.649L40.4739 144.736Z" fill="#A512BD"/>
<path d="M251 136.75C251 138.662 249.935 140.625 247.834 142.587C246.88 143.478 245.842 144.265 244.735 144.937C244.663 144.978 244.582 145 244.5 145C244.418 145 244.337 144.978 244.265 144.937C244.006 144.787 238 141.244 238 136.75C238 135.963 238.238 135.196 238.682 134.557C239.125 133.919 239.75 133.441 240.469 133.192C241.188 132.944 241.964 132.936 242.688 133.171C243.411 133.405 244.045 133.87 244.5 134.5C244.955 133.87 245.589 133.405 246.312 133.171C247.036 132.936 247.812 132.944 248.531 133.192C249.25 133.441 249.875 133.919 250.318 134.557C250.762 135.196 251 135.963 251 136.75Z" fill="#A512BD"/>
</svg>
