<svg width="378" height="34" viewBox="0 0 378 34" fill="none" xmlns="http://www.w3.org/2000/svg">
<path d="M0.52002 33.0001V0.600098H13.08V3.9601H5.04002V14.6801H11.56V17.8801H5.04002V29.7601H13.16V33.0001H0.52002Z" fill="url(#paint0_linear_1294_38)"/>
<path d="M16.4491 33.0001V9.8801H20.7291V12.1601C21.5024 11.4401 22.3557 10.8268 23.2891 10.3201C24.2224 9.81343 25.2491 9.5601 26.3691 9.5601C27.3024 9.5601 28.0091 9.8001 28.4891 10.2801C28.9957 10.7601 29.3424 11.3601 29.5291 12.0801C29.7424 12.8001 29.8491 13.5334 29.8491 14.2801V33.0001H25.5691V15.5201C25.5691 14.6934 25.4491 14.0534 25.2091 13.6001C24.9691 13.1468 24.4757 12.9201 23.7291 12.9201C23.2491 12.9201 22.7424 13.0668 22.2091 13.3601C21.7024 13.6268 21.2091 13.9601 20.7291 14.3601V33.0001H16.4491Z" fill="url(#paint1_linear_1294_38)"/>
<path d="M40.1872 33.3201C38.9872 33.3201 38.0139 33.0934 37.2672 32.6401C36.5472 32.1868 36.0139 31.5468 35.6672 30.7201C35.3472 29.8934 35.1872 28.9201 35.1872 27.8001V12.7201H32.7472V9.8801H35.1872V3.1201H39.4672V9.8801H43.1872V12.7201H39.4672V27.5201C39.4672 28.4268 39.6139 29.0801 39.9072 29.4801C40.2005 29.8534 40.7605 30.0401 41.5872 30.0401C41.8005 30.0401 42.0405 30.0268 42.3072 30.0001C42.6005 29.9734 42.8805 29.9468 43.1472 29.9201V33.0801C42.6139 33.1601 42.1205 33.2134 41.6672 33.2401C41.2139 33.2934 40.7205 33.3201 40.1872 33.3201Z" fill="url(#paint2_linear_1294_38)"/>
<path d="M46.4519 33.0001V9.8801H50.7319V13.1601C51.5852 11.7468 52.4386 10.8001 53.2919 10.3201C54.1452 9.8401 54.9986 9.6001 55.8519 9.6001C55.9586 9.6001 56.0519 9.6001 56.1319 9.6001C56.2386 9.6001 56.3719 9.61343 56.5319 9.6401V14.3601C56.2119 14.2268 55.8386 14.1201 55.4119 14.0401C55.0119 13.9334 54.5986 13.8801 54.1719 13.8801C53.5052 13.8801 52.8919 14.0401 52.3319 14.3601C51.7986 14.6534 51.2652 15.2401 50.7319 16.1201V33.0001H46.4519Z" fill="url(#paint3_linear_1294_38)"/>
<path d="M65.5835 33.3201C63.7701 33.3201 62.3701 32.9734 61.3835 32.2801C60.3968 31.5601 59.7035 30.5201 59.3035 29.1601C58.9301 27.7734 58.7435 26.0801 58.7435 24.0801V18.8001C58.7435 16.7468 58.9435 15.0401 59.3435 13.6801C59.7435 12.3201 60.4368 11.2934 61.4235 10.6001C62.4368 9.90677 63.8235 9.5601 65.5835 9.5601C67.5301 9.5601 68.9568 9.9601 69.8635 10.7601C70.7968 11.5601 71.4101 12.7201 71.7035 14.2401C71.9968 15.7334 72.1435 17.5334 72.1435 19.6401V21.5201H63.0235V26.1601C63.0235 27.0934 63.1035 27.8534 63.2635 28.4401C63.4501 29.0268 63.7301 29.4668 64.1035 29.7601C64.5035 30.0268 65.0101 30.1601 65.6235 30.1601C66.2635 30.1601 66.7435 30.0134 67.0635 29.7201C67.4101 29.4001 67.6368 28.9601 67.7435 28.4001C67.8768 27.8134 67.9435 27.1334 67.9435 26.3601V24.9601H72.1035V25.8401C72.1035 28.1601 71.6101 29.9868 70.6235 31.3201C69.6368 32.6534 67.9568 33.3201 65.5835 33.3201ZM63.0235 19.2001H67.9435V17.1201C67.9435 16.1601 67.8901 15.3601 67.7835 14.7201C67.6768 14.0534 67.4501 13.5601 67.1035 13.2401C66.7835 12.8934 66.2635 12.7201 65.5435 12.7201C64.8501 12.7201 64.3168 12.8801 63.9435 13.2001C63.5968 13.5201 63.3568 14.0668 63.2235 14.8401C63.0901 15.5868 63.0235 16.6268 63.0235 17.9601V19.2001Z" fill="url(#paint4_linear_1294_38)"/>
<path d="M91.56 33.3201C89.7467 33.3201 88.3467 32.9734 87.36 32.2801C86.3734 31.5601 85.68 30.5201 85.28 29.1601C84.9067 27.7734 84.72 26.0801 84.72 24.0801V18.8001C84.72 16.7468 84.92 15.0401 85.32 13.6801C85.72 12.3201 86.4134 11.2934 87.4 10.6001C88.4134 9.90677 89.8 9.5601 91.56 9.5601C93.5067 9.5601 94.9333 9.9601 95.84 10.7601C96.7734 11.5601 97.3867 12.7201 97.68 14.2401C97.9734 15.7334 98.12 17.5334 98.12 19.6401V21.5201H89V26.1601C89 27.0934 89.08 27.8534 89.24 28.4401C89.4267 29.0268 89.7067 29.4668 90.08 29.7601C90.48 30.0268 90.9867 30.1601 91.6 30.1601C92.24 30.1601 92.72 30.0134 93.04 29.7201C93.3867 29.4001 93.6133 28.9601 93.72 28.4001C93.8533 27.8134 93.92 27.1334 93.92 26.3601V24.9601H98.08V25.8401C98.08 28.1601 97.5867 29.9868 96.6 31.3201C95.6134 32.6534 93.9333 33.3201 91.56 33.3201ZM89 19.2001H93.92V17.1201C93.92 16.1601 93.8667 15.3601 93.76 14.7201C93.6534 14.0534 93.4267 13.5601 93.08 13.2401C92.76 12.8934 92.24 12.7201 91.52 12.7201C90.8267 12.7201 90.2934 12.8801 89.92 13.2001C89.5734 13.5201 89.3334 14.0668 89.2 14.8401C89.0667 15.5868 89 16.6268 89 17.9601V19.2001Z" fill="url(#paint5_linear_1294_38)"/>
<path d="M101.996 33.0001V9.8801H105.956V12.0801C106.729 11.2001 107.583 10.5468 108.516 10.1201C109.449 9.69343 110.409 9.4801 111.396 9.4801C112.249 9.4801 113.009 9.69343 113.676 10.1201C114.369 10.5468 114.863 11.3068 115.156 12.4001C115.983 11.3868 116.876 10.6534 117.836 10.2001C118.823 9.7201 119.849 9.4801 120.916 9.4801C121.663 9.4801 122.343 9.66677 122.956 10.0401C123.569 10.3868 124.063 10.9601 124.436 11.7601C124.809 12.5334 124.996 13.5601 124.996 14.8401V33.0001H121.076V15.1201C121.076 14.0001 120.889 13.2534 120.516 12.8801C120.169 12.4801 119.689 12.2801 119.076 12.2801C118.489 12.2801 117.876 12.4534 117.236 12.8001C116.596 13.1201 116.009 13.5734 115.476 14.1601C115.476 14.2668 115.476 14.3734 115.476 14.4801C115.476 14.5868 115.476 14.7068 115.476 14.8401V33.0001H111.556V15.1201C111.556 14.0001 111.369 13.2534 110.996 12.8801C110.649 12.4801 110.169 12.2801 109.556 12.2801C108.969 12.2801 108.356 12.4534 107.716 12.8001C107.103 13.1201 106.516 13.5734 105.956 14.1601V33.0001H101.996Z" fill="url(#paint6_linear_1294_38)"/>
<path d="M144.644 33.3201C142.751 33.3201 141.311 32.9468 140.324 32.2001C139.364 31.4268 138.711 30.3468 138.364 28.9601C138.044 27.5734 137.884 25.9601 137.884 24.1201V18.8001C137.884 16.8534 138.057 15.2001 138.404 13.8401C138.751 12.4534 139.404 11.4001 140.364 10.6801C141.351 9.93343 142.777 9.5601 144.644 9.5601C146.324 9.5601 147.617 9.8401 148.524 10.4001C149.457 10.9334 150.097 11.7468 150.444 12.8401C150.791 13.9068 150.964 15.2401 150.964 16.8401V18.2001H147.084V16.8001C147.084 15.7868 147.017 14.9868 146.884 14.4001C146.751 13.8134 146.511 13.3868 146.164 13.1201C145.817 12.8534 145.324 12.7201 144.684 12.7201C143.991 12.7201 143.457 12.8801 143.084 13.2001C142.711 13.5201 142.457 14.0668 142.324 14.8401C142.217 15.5868 142.164 16.6134 142.164 17.9201V25.2001C142.164 27.1734 142.351 28.4934 142.724 29.1601C143.097 29.8268 143.764 30.1601 144.724 30.1601C145.444 30.1601 145.964 30.0001 146.284 29.6801C146.631 29.3334 146.844 28.8534 146.924 28.2401C147.031 27.6268 147.084 26.9334 147.084 26.1601V24.2801H150.964V25.8801C150.964 27.4268 150.777 28.7601 150.404 29.8801C150.057 31.0001 149.417 31.8534 148.484 32.4401C147.577 33.0268 146.297 33.3201 144.644 33.3201Z" fill="url(#paint7_linear_1294_38)"/>
<path d="M161.129 33.3201C159.423 33.3201 158.076 32.9734 157.089 32.2801C156.103 31.5868 155.396 30.6001 154.969 29.3201C154.569 28.0401 154.369 26.5334 154.369 24.8001V18.0801C154.369 16.3468 154.569 14.8401 154.969 13.5601C155.396 12.2801 156.103 11.2934 157.089 10.6001C158.076 9.90677 159.423 9.5601 161.129 9.5601C162.836 9.5601 164.169 9.90677 165.129 10.6001C166.116 11.2934 166.809 12.2801 167.209 13.5601C167.636 14.8401 167.849 16.3468 167.849 18.0801V24.8001C167.849 26.5334 167.636 28.0401 167.209 29.3201C166.809 30.6001 166.116 31.5868 165.129 32.2801C164.169 32.9734 162.836 33.3201 161.129 33.3201ZM161.129 30.1601C161.956 30.1601 162.529 29.9201 162.849 29.4401C163.196 28.9601 163.396 28.3334 163.449 27.5601C163.529 26.7601 163.569 25.9334 163.569 25.0801V17.8401C163.569 16.9601 163.529 16.1334 163.449 15.3601C163.396 14.5868 163.196 13.9601 162.849 13.4801C162.529 12.9734 161.956 12.7201 161.129 12.7201C160.303 12.7201 159.716 12.9734 159.369 13.4801C159.023 13.9601 158.809 14.5868 158.729 15.3601C158.676 16.1334 158.649 16.9601 158.649 17.8401V25.0801C158.649 25.9334 158.676 26.7601 158.729 27.5601C158.809 28.3334 159.023 28.9601 159.369 29.4401C159.716 29.9201 160.303 30.1601 161.129 30.1601Z" fill="url(#paint8_linear_1294_38)"/>
<path d="M171.762 33.0001V9.8801H176.042V12.1601C176.815 11.4401 177.668 10.8268 178.602 10.3201C179.535 9.81343 180.562 9.5601 181.682 9.5601C182.615 9.5601 183.322 9.8001 183.802 10.2801C184.308 10.7601 184.655 11.3601 184.842 12.0801C185.055 12.8001 185.162 13.5334 185.162 14.2801V33.0001H180.882V15.5201C180.882 14.6934 180.762 14.0534 180.522 13.6001C180.282 13.1468 179.788 12.9201 179.042 12.9201C178.562 12.9201 178.055 13.0668 177.522 13.3601C177.015 13.6268 176.522 13.9601 176.042 14.3601V33.0001H171.762Z" fill="url(#paint9_linear_1294_38)"/>
<path d="M195.5 33.3201C194.3 33.3201 193.326 33.0934 192.58 32.6401C191.86 32.1868 191.326 31.5468 190.98 30.7201C190.66 29.8934 190.5 28.9201 190.5 27.8001V12.7201H188.06V9.8801H190.5V3.1201H194.78V9.8801H198.5V12.7201H194.78V27.5201C194.78 28.4268 194.926 29.0801 195.22 29.4801C195.513 29.8534 196.073 30.0401 196.9 30.0401C197.113 30.0401 197.353 30.0268 197.62 30.0001C197.913 29.9734 198.193 29.9468 198.46 29.9201V33.0801C197.926 33.1601 197.433 33.2134 196.98 33.2401C196.526 33.2934 196.033 33.3201 195.5 33.3201Z" fill="url(#paint10_linear_1294_38)"/>
<path d="M205.804 33.3201C204.898 33.3201 204.098 33.0668 203.404 32.5601C202.711 32.0268 202.164 31.3601 201.764 30.5601C201.364 29.7334 201.164 28.8668 201.164 27.9601C201.164 26.5201 201.404 25.3068 201.884 24.3201C202.364 23.3334 203.018 22.5068 203.844 21.8401C204.698 21.1468 205.671 20.5468 206.764 20.0401C207.884 19.5334 209.058 19.0401 210.284 18.5601V16.9201C210.284 15.9868 210.231 15.2134 210.124 14.6001C210.018 13.9868 209.791 13.5334 209.444 13.2401C209.124 12.9201 208.631 12.7601 207.964 12.7601C207.378 12.7601 206.898 12.8934 206.524 13.1601C206.178 13.4268 205.924 13.8134 205.764 14.3201C205.604 14.8001 205.524 15.3734 205.524 16.0401V17.2001L201.284 17.0401C201.338 14.4801 201.924 12.6001 203.044 11.4001C204.164 10.1734 205.898 9.5601 208.244 9.5601C210.538 9.5601 212.164 10.1868 213.124 11.4401C214.084 12.6934 214.564 14.5068 214.564 16.8801V27.4401C214.564 28.1601 214.578 28.8534 214.604 29.5201C214.658 30.1868 214.711 30.8134 214.764 31.4001C214.844 31.9601 214.911 32.4934 214.964 33.0001H211.044C210.964 32.5734 210.858 32.0401 210.724 31.4001C210.618 30.7334 210.538 30.1334 210.484 29.6001C210.218 30.5068 209.698 31.3601 208.924 32.1601C208.178 32.9334 207.138 33.3201 205.804 33.3201ZM207.484 29.6401C207.911 29.6401 208.311 29.5201 208.684 29.2801C209.058 29.0401 209.391 28.7734 209.684 28.4801C209.978 28.1601 210.178 27.9068 210.284 27.7201V21.1601C209.618 21.5334 208.991 21.9068 208.404 22.2801C207.818 22.6534 207.298 23.0534 206.844 23.4801C206.418 23.8801 206.071 24.3468 205.804 24.8801C205.564 25.3868 205.444 25.9734 205.444 26.6401C205.444 27.5734 205.618 28.3068 205.964 28.8401C206.311 29.3734 206.818 29.6401 207.484 29.6401Z" fill="url(#paint11_linear_1294_38)"/>
<path d="M224.523 33.3201C223.323 33.3201 222.35 33.0934 221.603 32.6401C220.883 32.1868 220.35 31.5468 220.003 30.7201C219.683 29.8934 219.523 28.9201 219.523 27.8001V12.7201H217.083V9.8801H219.523V3.1201H223.803V9.8801H227.523V12.7201H223.803V27.5201C223.803 28.4268 223.95 29.0801 224.243 29.4801C224.536 29.8534 225.096 30.0401 225.923 30.0401C226.136 30.0401 226.376 30.0268 226.643 30.0001C226.936 29.9734 227.216 29.9468 227.483 29.9201V33.0801C226.95 33.1601 226.456 33.2134 226.003 33.2401C225.55 33.2934 225.056 33.3201 224.523 33.3201Z" fill="url(#paint12_linear_1294_38)"/>
<path d="M237.028 33.3201C235.321 33.3201 233.975 32.9734 232.988 32.2801C232.001 31.5868 231.294 30.6001 230.868 29.3201C230.468 28.0401 230.268 26.5334 230.268 24.8001V18.0801C230.268 16.3468 230.468 14.8401 230.868 13.5601C231.294 12.2801 232.001 11.2934 232.988 10.6001C233.975 9.90677 235.321 9.5601 237.028 9.5601C238.734 9.5601 240.068 9.90677 241.028 10.6001C242.014 11.2934 242.708 12.2801 243.108 13.5601C243.535 14.8401 243.748 16.3468 243.748 18.0801V24.8001C243.748 26.5334 243.535 28.0401 243.108 29.3201C242.708 30.6001 242.014 31.5868 241.028 32.2801C240.068 32.9734 238.734 33.3201 237.028 33.3201ZM237.028 30.1601C237.854 30.1601 238.428 29.9201 238.748 29.4401C239.094 28.9601 239.295 28.3334 239.348 27.5601C239.428 26.7601 239.468 25.9334 239.468 25.0801V17.8401C239.468 16.9601 239.428 16.1334 239.348 15.3601C239.295 14.5868 239.094 13.9601 238.748 13.4801C238.428 12.9734 237.854 12.7201 237.028 12.7201C236.201 12.7201 235.615 12.9734 235.268 13.4801C234.921 13.9601 234.708 14.5868 234.628 15.3601C234.575 16.1334 234.548 16.9601 234.548 17.8401V25.0801C234.548 25.9334 234.575 26.7601 234.628 27.5601C234.708 28.3334 234.921 28.9601 235.268 29.4401C235.615 29.9201 236.201 30.1601 237.028 30.1601Z" fill="url(#paint13_linear_1294_38)"/>
<path d="M263.121 33.3201C261.227 33.3201 259.787 32.9468 258.801 32.2001C257.841 31.4268 257.187 30.3468 256.841 28.9601C256.521 27.5734 256.361 25.9601 256.361 24.1201V18.8001C256.361 16.8534 256.534 15.2001 256.881 13.8401C257.227 12.4534 257.881 11.4001 258.841 10.6801C259.827 9.93343 261.254 9.5601 263.121 9.5601C264.801 9.5601 266.094 9.8401 267.001 10.4001C267.934 10.9334 268.574 11.7468 268.921 12.8401C269.267 13.9068 269.441 15.2401 269.441 16.8401V18.2001H265.561V16.8001C265.561 15.7868 265.494 14.9868 265.361 14.4001C265.227 13.8134 264.987 13.3868 264.641 13.1201C264.294 12.8534 263.801 12.7201 263.161 12.7201C262.467 12.7201 261.934 12.8801 261.561 13.2001C261.187 13.5201 260.934 14.0668 260.801 14.8401C260.694 15.5868 260.641 16.6134 260.641 17.9201V25.2001C260.641 27.1734 260.827 28.4934 261.201 29.1601C261.574 29.8268 262.241 30.1601 263.201 30.1601C263.921 30.1601 264.441 30.0001 264.761 29.6801C265.107 29.3334 265.321 28.8534 265.401 28.2401C265.507 27.6268 265.561 26.9334 265.561 26.1601V24.2801H269.441V25.8801C269.441 27.4268 269.254 28.7601 268.881 29.8801C268.534 31.0001 267.894 31.8534 266.961 32.4401C266.054 33.0268 264.774 33.3201 263.121 33.3201Z" fill="url(#paint14_linear_1294_38)"/>
<path d="M279.606 33.3201C277.899 33.3201 276.553 32.9734 275.566 32.2801C274.579 31.5868 273.873 30.6001 273.446 29.3201C273.046 28.0401 272.846 26.5334 272.846 24.8001V18.0801C272.846 16.3468 273.046 14.8401 273.446 13.5601C273.873 12.2801 274.579 11.2934 275.566 10.6001C276.553 9.90677 277.899 9.5601 279.606 9.5601C281.313 9.5601 282.646 9.90677 283.606 10.6001C284.593 11.2934 285.286 12.2801 285.686 13.5601C286.113 14.8401 286.326 16.3468 286.326 18.0801V24.8001C286.326 26.5334 286.113 28.0401 285.686 29.3201C285.286 30.6001 284.593 31.5868 283.606 32.2801C282.646 32.9734 281.313 33.3201 279.606 33.3201ZM279.606 30.1601C280.433 30.1601 281.006 29.9201 281.326 29.4401C281.673 28.9601 281.873 28.3334 281.926 27.5601C282.006 26.7601 282.046 25.9334 282.046 25.0801V17.8401C282.046 16.9601 282.006 16.1334 281.926 15.3601C281.873 14.5868 281.673 13.9601 281.326 13.4801C281.006 12.9734 280.433 12.7201 279.606 12.7201C278.779 12.7201 278.193 12.9734 277.846 13.4801C277.499 13.9601 277.286 14.5868 277.206 15.3601C277.153 16.1334 277.126 16.9601 277.126 17.8401V25.0801C277.126 25.9334 277.153 26.7601 277.206 27.5601C277.286 28.3334 277.499 28.9601 277.846 29.4401C278.193 29.9201 278.779 30.1601 279.606 30.1601Z" fill="url(#paint15_linear_1294_38)"/>
<path d="M290.238 33.0001V9.8801H294.518V12.1601C295.292 11.4401 296.145 10.8268 297.078 10.3201C298.011 9.81343 299.038 9.5601 300.158 9.5601C301.091 9.5601 301.798 9.8001 302.278 10.2801C302.785 10.7601 303.131 11.3601 303.318 12.0801C303.531 12.8001 303.638 13.5334 303.638 14.2801V33.0001H299.358V15.5201C299.358 14.6934 299.238 14.0534 298.998 13.6001C298.758 13.1468 298.265 12.9201 297.518 12.9201C297.038 12.9201 296.531 13.0668 295.998 13.3601C295.491 13.6268 294.998 13.9601 294.518 14.3601V33.0001H290.238Z" fill="url(#paint16_linear_1294_38)"/>
<path d="M314.176 33.3201C312.47 33.3201 311.123 32.9734 310.136 32.2801C309.15 31.5868 308.443 30.6001 308.016 29.3201C307.616 28.0401 307.416 26.5334 307.416 24.8001V18.0801C307.416 16.3468 307.616 14.8401 308.016 13.5601C308.443 12.2801 309.15 11.2934 310.136 10.6001C311.123 9.90677 312.47 9.5601 314.176 9.5601C315.883 9.5601 317.216 9.90677 318.176 10.6001C319.163 11.2934 319.856 12.2801 320.256 13.5601C320.683 14.8401 320.896 16.3468 320.896 18.0801V24.8001C320.896 26.5334 320.683 28.0401 320.256 29.3201C319.856 30.6001 319.163 31.5868 318.176 32.2801C317.216 32.9734 315.883 33.3201 314.176 33.3201ZM314.176 30.1601C315.003 30.1601 315.576 29.9201 315.896 29.4401C316.243 28.9601 316.443 28.3334 316.496 27.5601C316.576 26.7601 316.616 25.9334 316.616 25.0801V17.8401C316.616 16.9601 316.576 16.1334 316.496 15.3601C316.443 14.5868 316.243 13.9601 315.896 13.4801C315.576 12.9734 315.003 12.7201 314.176 12.7201C313.35 12.7201 312.763 12.9734 312.416 13.4801C312.07 13.9601 311.856 14.5868 311.776 15.3601C311.723 16.1334 311.696 16.9601 311.696 17.8401V25.0801C311.696 25.9334 311.723 26.7601 311.776 27.5601C311.856 28.3334 312.07 28.9601 312.416 29.4401C312.763 29.9201 313.35 30.1601 314.176 30.1601Z" fill="url(#paint17_linear_1294_38)"/>
<path d="M330.168 33.3201C328.275 33.3201 326.755 32.7334 325.608 31.5601C324.462 30.3601 323.808 28.7868 323.648 26.8401L327.208 25.7601C327.422 27.2268 327.782 28.3334 328.288 29.0801C328.795 29.8001 329.542 30.1601 330.528 30.1601C331.302 30.1601 331.888 29.9468 332.288 29.5201C332.688 29.0668 332.888 28.4668 332.888 27.7201C332.888 27.0534 332.742 26.4534 332.448 25.9201C332.155 25.3868 331.675 24.8401 331.008 24.2801L327.048 20.8801C326.248 20.1868 325.568 19.4134 325.008 18.5601C324.475 17.7068 324.208 16.6001 324.208 15.2401C324.208 14.0134 324.448 12.9868 324.928 12.1601C325.435 11.3068 326.128 10.6668 327.008 10.2401C327.915 9.78677 328.968 9.5601 330.168 9.5601C332.008 9.5601 333.408 10.1601 334.368 11.3601C335.355 12.5334 335.915 13.9601 336.048 15.6401L333.168 16.7201C333.062 15.9201 332.902 15.2268 332.688 14.6401C332.475 14.0268 332.182 13.5601 331.808 13.2401C331.435 12.8934 330.942 12.7201 330.328 12.7201C329.635 12.7201 329.075 12.9601 328.648 13.4401C328.248 13.8934 328.048 14.4401 328.048 15.0801C328.048 15.4801 328.128 15.8801 328.288 16.2801C328.475 16.6534 328.782 17.0268 329.208 17.4001L333.288 21.1601C333.848 21.6668 334.368 22.2134 334.848 22.8001C335.355 23.3868 335.768 24.0534 336.088 24.8001C336.408 25.5468 336.568 26.4134 336.568 27.4001C336.568 28.7068 336.302 29.8001 335.768 30.6801C335.235 31.5601 334.488 32.2268 333.528 32.6801C332.568 33.1068 331.448 33.3201 330.168 33.3201Z" fill="url(#paint18_linear_1294_38)"/>
<path d="M346.089 33.3201C344.196 33.3201 342.756 32.9468 341.769 32.2001C340.809 31.4268 340.156 30.3468 339.809 28.9601C339.489 27.5734 339.329 25.9601 339.329 24.1201V18.8001C339.329 16.8534 339.503 15.2001 339.849 13.8401C340.196 12.4534 340.849 11.4001 341.809 10.6801C342.796 9.93343 344.223 9.5601 346.089 9.5601C347.769 9.5601 349.063 9.8401 349.969 10.4001C350.903 10.9334 351.543 11.7468 351.889 12.8401C352.236 13.9068 352.409 15.2401 352.409 16.8401V18.2001H348.529V16.8001C348.529 15.7868 348.463 14.9868 348.329 14.4001C348.196 13.8134 347.956 13.3868 347.609 13.1201C347.263 12.8534 346.769 12.7201 346.129 12.7201C345.436 12.7201 344.903 12.8801 344.529 13.2001C344.156 13.5201 343.903 14.0668 343.769 14.8401C343.663 15.5868 343.609 16.6134 343.609 17.9201V25.2001C343.609 27.1734 343.796 28.4934 344.169 29.1601C344.543 29.8268 345.209 30.1601 346.169 30.1601C346.889 30.1601 347.409 30.0001 347.729 29.6801C348.076 29.3334 348.289 28.8534 348.369 28.2401C348.476 27.6268 348.529 26.9334 348.529 26.1601V24.2801H352.409V25.8801C352.409 27.4268 352.223 28.7601 351.849 29.8801C351.503 31.0001 350.863 31.8534 349.929 32.4401C349.023 33.0268 347.743 33.3201 346.089 33.3201Z" fill="url(#paint19_linear_1294_38)"/>
<path d="M362.575 33.3201C360.868 33.3201 359.521 32.9734 358.535 32.2801C357.548 31.5868 356.841 30.6001 356.415 29.3201C356.015 28.0401 355.815 26.5334 355.815 24.8001V18.0801C355.815 16.3468 356.015 14.8401 356.415 13.5601C356.841 12.2801 357.548 11.2934 358.535 10.6001C359.521 9.90677 360.868 9.5601 362.575 9.5601C364.281 9.5601 365.615 9.90677 366.575 10.6001C367.561 11.2934 368.255 12.2801 368.655 13.5601C369.081 14.8401 369.295 16.3468 369.295 18.0801V24.8001C369.295 26.5334 369.081 28.0401 368.655 29.3201C368.255 30.6001 367.561 31.5868 366.575 32.2801C365.615 32.9734 364.281 33.3201 362.575 33.3201ZM362.575 30.1601C363.401 30.1601 363.975 29.9201 364.295 29.4401C364.641 28.9601 364.841 28.3334 364.895 27.5601C364.975 26.7601 365.015 25.9334 365.015 25.0801V17.8401C365.015 16.9601 364.975 16.1334 364.895 15.3601C364.841 14.5868 364.641 13.9601 364.295 13.4801C363.975 12.9734 363.401 12.7201 362.575 12.7201C361.748 12.7201 361.161 12.9734 360.815 13.4801C360.468 13.9601 360.255 14.5868 360.175 15.3601C360.121 16.1334 360.095 16.9601 360.095 17.8401V25.0801C360.095 25.9334 360.121 26.7601 360.175 27.5601C360.255 28.3334 360.468 28.9601 360.815 29.4401C361.161 29.9201 361.748 30.1601 362.575 30.1601Z" fill="url(#paint20_linear_1294_38)"/>
<path d="M374.407 26.0801L373.047 0.600098H377.367L375.927 26.0801H374.407ZM373.047 33.0001V28.6001H377.367V33.0001H373.047Z" fill="url(#paint21_linear_1294_38)"/>
<defs>
<linearGradient id="paint0_linear_1294_38" x1="189" y1="-15" x2="189" y2="44" gradientUnits="userSpaceOnUse">
<stop stop-color="#A512BD"/>
<stop offset="1" stop-color="#FF7926"/>
</linearGradient>
<linearGradient id="paint1_linear_1294_38" x1="189" y1="-15" x2="189" y2="44" gradientUnits="userSpaceOnUse">
<stop stop-color="#A512BD"/>
<stop offset="1" stop-color="#FF7926"/>
</linearGradient>
<linearGradient id="paint2_linear_1294_38" x1="189" y1="-15" x2="189" y2="44" gradientUnits="userSpaceOnUse">
<stop stop-color="#A512BD"/>
<stop offset="1" stop-color="#FF7926"/>
</linearGradient>
<linearGradient id="paint3_linear_1294_38" x1="189" y1="-15" x2="189" y2="44" gradientUnits="userSpaceOnUse">
<stop stop-color="#A512BD"/>
<stop offset="1" stop-color="#FF7926"/>
</linearGradient>
<linearGradient id="paint4_linear_1294_38" x1="189" y1="-15" x2="189" y2="44" gradientUnits="userSpaceOnUse">
<stop stop-color="#A512BD"/>
<stop offset="1" stop-color="#FF7926"/>
</linearGradient>
<linearGradient id="paint5_linear_1294_38" x1="189" y1="-15" x2="189" y2="44" gradientUnits="userSpaceOnUse">
<stop stop-color="#A512BD"/>
<stop offset="1" stop-color="#FF7926"/>
</linearGradient>
<linearGradient id="paint6_linear_1294_38" x1="189" y1="-15" x2="189" y2="44" gradientUnits="userSpaceOnUse">
<stop stop-color="#A512BD"/>
<stop offset="1" stop-color="#FF7926"/>
</linearGradient>
<linearGradient id="paint7_linear_1294_38" x1="189" y1="-15" x2="189" y2="44" gradientUnits="userSpaceOnUse">
<stop stop-color="#A512BD"/>
<stop offset="1" stop-color="#FF7926"/>
</linearGradient>
<linearGradient id="paint8_linear_1294_38" x1="189" y1="-15" x2="189" y2="44" gradientUnits="userSpaceOnUse">
<stop stop-color="#A512BD"/>
<stop offset="1" stop-color="#FF7926"/>
</linearGradient>
<linearGradient id="paint9_linear_1294_38" x1="189" y1="-15" x2="189" y2="44" gradientUnits="userSpaceOnUse">
<stop stop-color="#A512BD"/>
<stop offset="1" stop-color="#FF7926"/>
</linearGradient>
<linearGradient id="paint10_linear_1294_38" x1="189" y1="-15" x2="189" y2="44" gradientUnits="userSpaceOnUse">
<stop stop-color="#A512BD"/>
<stop offset="1" stop-color="#FF7926"/>
</linearGradient>
<linearGradient id="paint11_linear_1294_38" x1="189" y1="-15" x2="189" y2="44" gradientUnits="userSpaceOnUse">
<stop stop-color="#A512BD"/>
<stop offset="1" stop-color="#FF7926"/>
</linearGradient>
<linearGradient id="paint12_linear_1294_38" x1="189" y1="-15" x2="189" y2="44" gradientUnits="userSpaceOnUse">
<stop stop-color="#A512BD"/>
<stop offset="1" stop-color="#FF7926"/>
</linearGradient>
<linearGradient id="paint13_linear_1294_38" x1="189" y1="-15" x2="189" y2="44" gradientUnits="userSpaceOnUse">
<stop stop-color="#A512BD"/>
<stop offset="1" stop-color="#FF7926"/>
</linearGradient>
<linearGradient id="paint14_linear_1294_38" x1="189" y1="-15" x2="189" y2="44" gradientUnits="userSpaceOnUse">
<stop stop-color="#A512BD"/>
<stop offset="1" stop-color="#FF7926"/>
</linearGradient>
<linearGradient id="paint15_linear_1294_38" x1="189" y1="-15" x2="189" y2="44" gradientUnits="userSpaceOnUse">
<stop stop-color="#A512BD"/>
<stop offset="1" stop-color="#FF7926"/>
</linearGradient>
<linearGradient id="paint16_linear_1294_38" x1="189" y1="-15" x2="189" y2="44" gradientUnits="userSpaceOnUse">
<stop stop-color="#A512BD"/>
<stop offset="1" stop-color="#FF7926"/>
</linearGradient>
<linearGradient id="paint17_linear_1294_38" x1="189" y1="-15" x2="189" y2="44" gradientUnits="userSpaceOnUse">
<stop stop-color="#A512BD"/>
<stop offset="1" stop-color="#FF7926"/>
</linearGradient>
<linearGradient id="paint18_linear_1294_38" x1="189" y1="-15" x2="189" y2="44" gradientUnits="userSpaceOnUse">
<stop stop-color="#A512BD"/>
<stop offset="1" stop-color="#FF7926"/>
</linearGradient>
<linearGradient id="paint19_linear_1294_38" x1="189" y1="-15" x2="189" y2="44" gradientUnits="userSpaceOnUse">
<stop stop-color="#A512BD"/>
<stop offset="1" stop-color="#FF7926"/>
</linearGradient>
<linearGradient id="paint20_linear_1294_38" x1="189" y1="-15" x2="189" y2="44" gradientUnits="userSpaceOnUse">
<stop stop-color="#A512BD"/>
<stop offset="1" stop-color="#FF7926"/>
</linearGradient>
<linearGradient id="paint21_linear_1294_38" x1="189" y1="-15" x2="189" y2="44" gradientUnits="userSpaceOnUse">
<stop stop-color="#A512BD"/>
<stop offset="1" stop-color="#FF7926"/>
</linearGradient>
</defs>
</svg>
