<svg width="137" height="900" viewBox="0 0 137 900" fill="none" xmlns="http://www.w3.org/2000/svg">
<path fill-rule="evenodd" clip-rule="evenodd" d="M0.871582 903.055L25.6123 865.027C50.3531 826.999 99.8346 750.943 108.458 675.323C117.082 599.703 84.8479 524.518 58.8997 449.267C32.9514 374.015 13.289 298.696 6.19813 223.244C-0.892691 147.791 4.58811 72.2042 7.32852 34.4109L10.0689 -3.3825L160.928 -4.9906L161.331 32.7693C161.733 70.5291 162.538 146.049 163.344 221.568C164.149 297.088 164.954 372.608 165.759 448.127C166.564 523.647 167.369 599.167 168.174 674.687C168.979 750.206 169.784 825.726 170.186 863.486L170.589 901.246L0.871582 903.055Z" fill="url(#paint0_linear_974_53)"/>
<defs>
<linearGradient id="paint0_linear_974_53" x1="7.97338" y1="449.503" x2="165.759" y2="448.124" gradientUnits="userSpaceOnUse">
<stop stop-color="#FF7926"/>
<stop offset="1" stop-color="#8E0389"/>
</linearGradient>
</defs>
</svg>
